<svg xmlns="http://www.w3.org/2000/svg" width="512" height="512" viewBox="0 0 124 124">
  <defs>
    <linearGradient id="Gradient1" x1="0" x2="1" y1="1" y2="0">
      <stop offset="55%" stop-color="#8fc7e2" />
      <stop offset="85%" stop-color="#748194" />
      <stop offset="100%" stop-color="#4e6486" />
    </linearGradient>
  </defs>
  <!-- Tie -->
  <path d="M40 14 q-5 0 0 3.704 l16 11.851 q6 4.444 12 0 l16 -11.851 q5 -3.704 0 -3.704" fill="#8193ae" />
  <path d="M66 37.412 q-4 -9.412 -8 0 l-13 30.588 l17 17 l17 -17 l-13 -30.588" fill="#8193ae" />

  <!-- Check -->
  <path d="M62 88 l-20 -20 q-10 -10 -18 -2 t2 18 l20 20 q16 16 32 0 l35 -35 q10 -10 2 -18 t-18 2" fill="url(#Gradient1)" />
</svg>